<svg id="Layer_1" data-name="Layer 1" xmlns="http://www.w3.org/2000/svg" viewBox="0 0 283.74 75"><defs><style>.cls-1{fill:#0071bc;}</style></defs><title>whatsnx-logo</title><polygon class="cls-1" points="208 21.98 234.8 75 243.85 75 244 74.71 244 0 233.02 0 233.35 47.79 209.15 0 197 0 197 75 208 75 208 21.98"/><polygon class="cls-1" points="283.74 0 271.18 0 257.57 25.58 245 0.63 245 24.33 251.49 37.45 245 49.74 245 72.38 257.26 49.68 269.94 75 282.27 75 263.84 37.8 283.74 0"/><polygon class="cls-1" points="120.83 74 139.35 38 106.93 38 89.1 74 108.57 74 110.33 70 94.29 70 108.89 42 134.07 42 117.22 74 120.83 74"/><polygon class="cls-1" points="80.43 10 48.37 74 51.95 74 68.1 42 94.09 42 77.48 74 81.08 74 99.33 38 69.7 38 84.1 10 80.43 10"/><polygon class="cls-1" points="162.01 10 152.6 29 133.93 29 132.12 33 151 33 129.98 74 133.56 74 154.59 33 173.44 33 175.32 29 156.19 29 165.62 10 162.01 10"/><polygon class="cls-1" points="185.33 10 178.13 24 181.71 24 188.91 10 185.33 10"/><polygon class="cls-1" points="152.72 54.95 181.38 55.31 174.39 70 144.95 70 143.31 74 176.59 74 177.53 71.8 186.47 52.66 157.91 52.26 163.3 42 191.68 42 193.19 38 161.34 38 152.72 54.95"/><polygon class="cls-1" points="38 60.51 38 0 34 0 34 73.9 71.74 0 68.38 0 38 60.51"/><polygon class="cls-1" points="3 60.43 3 0 0 0 0 73.98 36.82 0 33.77 0 3 60.43"/></svg>